# xmcd
#
# Track frame offsets:
#	150
#	19416
#	33473
#	45258
#	57138
#	69859
#	80587
#	95291
#	109169
#	120161
#	134980
#	150322
#	165930
#	178432
#	192413
#	208882
#	218556
#	232719
#	241603
#	254413
#
# Disc length: 3548 seconds
#
# Revision: 0
# Processed by: cddbd v1.5.1PL0 Copyright (c) Steve Scherf et al.
# Submitted via: EasyCDDAExtractor 8.2.1.1
#
DISCID=050dda14
DTITLE=Various Artist - The Rat Pack [CD2]
DYEAR=2004
DGENRE=Oldies
TTITLE0=Frank Sinatra - Stormy Weather
TTITLE1=Frank Sinatra - One For My Baby
TTITLE2=Frank Sinatra - You Do Something To Me
TTITLE3=Frank Sinatra - American Beauty Rose
TTITLE4=Sammy Davis Jnr - What I've Got In Mind
TTITLE5=Sammy Davis Jnr - Mention A Mansion
TTITLE6=Sammy Davis Jnr - You're Gonna Love Yourself (In The Morning)
TTITLE7=Sammy Davis Jnr - Smoke, Smoke, Smoke (That Cigarette)
TTITLE8=Sammy Davis Jnr - Oh Lonesome Me
TTITLE9=Sammy Davis Jnr - We Could Have Been The Closest Of Friends
TTITLE10=Sammy Davis Jnr - Hey Won't You Play
TTITLE11=Sammy Davis Jnr - Please Don't Tell Me How The Story Ends
TTITLE12=Sammy Davis Jnr - The River's Too Wide
TTITLE13=Sammy Davis Jnr - What Kind Of Fool
TTITLE14=Sammy Davis Jnr - Out Of This World
TTITLE15=Dean Martin - Here I'll Stay
TTITLE16=Dean Martin - Till Then
TTITLE17=Dean Martin - About A Quarter To Nine
TTITLE18=Dean Martin - Memory Lane
TTITLE19=Dean Martin - Hold Me
EXTD=(CD 2]\n
EXTT0=
EXTT1=
EXTT2=
EXTT3=
EXTT4=
EXTT5=
EXTT6=
EXTT7=
EXTT8=
EXTT9=
EXTT10=
EXTT11=
EXTT12=
EXTT13=
EXTT14=
EXTT15=
EXTT16=
EXTT17=
EXTT18=
EXTT19=
PLAYORDER=
